<svg width="83" height="83" viewBox="0 0 83 83" fill="none" xmlns="http://www.w3.org/2000/svg">
<g opacity="0.15">
<path fill-rule="evenodd" clip-rule="evenodd" d="M38.5366 28.6585C38.5366 32.4767 35.4401 35.5732 31.622 35.5732C27.8038 35.5732 24.7073 32.4767 24.7073 28.6585C24.7073 24.8391 27.8038 21.7439 31.622 21.7439C35.4401 21.7439 38.5366 24.8391 38.5366 28.6585Z" stroke="white"/>
<path fill-rule="evenodd" clip-rule="evenodd" d="M57.3049 56.811C57.3049 59.2661 55.3151 61.2561 52.8603 61.2561C50.4056 61.2561 48.4146 59.2661 48.4146 56.811C48.4146 54.3559 50.4056 52.3658 52.8603 52.3658C55.3151 52.3658 57.3049 54.3559 57.3049 56.811Z" stroke="white"/>
<path fill-rule="evenodd" clip-rule="evenodd" d="M29.6463 46.9329C29.6463 49.388 27.6563 51.378 25.2012 51.378C22.7461 51.378 20.7561 49.388 20.7561 46.9329C20.7561 44.4778 22.7461 42.4878 25.2012 42.4878C27.6563 42.4878 29.6463 44.4778 29.6463 46.9329Z" stroke="white"/>
<path fill-rule="evenodd" clip-rule="evenodd" d="M47.4268 46.9329C47.4268 49.388 45.4358 51.378 42.9811 51.378C40.5263 51.378 38.5366 49.388 38.5366 46.9329C38.5366 44.4778 40.5263 42.4878 42.9811 42.4878C45.4358 42.4878 47.4268 44.4778 47.4268 46.9329Z" stroke="white"/>
<path fill-rule="evenodd" clip-rule="evenodd" d="M64.2195 43.9695C64.2195 45.8782 62.6721 47.4268 60.7622 47.4268C58.8523 47.4268 57.3049 45.8782 57.3049 43.9695C57.3049 42.0609 58.8523 40.5122 60.7622 40.5122C62.6721 40.5122 64.2195 42.0609 64.2195 43.9695Z" stroke="white"/>
<path fill-rule="evenodd" clip-rule="evenodd" d="M43.4756 62.7372C43.4756 64.1013 42.3699 65.2073 41.0061 65.2073C39.6423 65.2073 38.5366 64.1013 38.5366 62.7372C38.5366 61.3731 39.6423 60.2683 41.0061 60.2683C42.3699 60.2683 43.4756 61.3731 43.4756 62.7372Z" stroke="white"/>
<path fill-rule="evenodd" clip-rule="evenodd" d="M54.3415 30.1397C54.3415 31.5038 53.2355 32.6098 51.8714 32.6098C50.5073 32.6098 49.4025 31.5038 49.4025 30.1397C49.4025 28.7756 50.5073 27.6708 51.8714 27.6708C53.2355 27.6708 54.3415 28.7756 54.3415 30.1397Z" stroke="white"/>
<path fill-rule="evenodd" clip-rule="evenodd" d="M81.65 40.3895C81.0658 39.0561 80.0043 38.6809 78.9127 39.1543C78.2655 39.4351 77.7027 39.6592 77.7027 39.6592C76.6942 40.0797 75.595 40.5985 74.4832 40.5985H74.1621C73.0453 40.5985 72.1312 39.741 72.0255 38.6305C71.7396 35.6011 71.0056 32.6297 69.851 29.8181C69.4405 28.8184 69.8158 27.6701 70.7525 27.13L71.1542 26.897C72.1174 26.3418 73.3299 26.241 74.4127 26.1013C74.4127 26.1013 75.012 26.0132 75.7121 25.9326C76.8956 25.7978 77.6259 24.9404 77.466 23.495C77.4018 22.9158 77.1991 22.3303 76.8944 21.804C76.5897 21.2764 76.1842 20.8081 75.7159 20.4631C74.5424 19.6018 73.4369 19.8058 72.7268 20.7627C72.3075 21.3293 71.931 21.8053 71.931 21.8053C71.2687 22.6728 70.5762 23.6725 69.6118 24.229L69.3423 24.3851C68.3741 24.9429 67.1515 24.6558 66.5056 23.7455C64.7769 21.3092 62.6691 19.1032 60.2126 17.2159C59.3527 16.5561 59.1034 15.3713 59.6435 14.4345L59.8802 14.0278C60.4355 13.0634 61.4352 12.3709 62.304 11.7086C62.304 11.7086 62.7787 11.3321 63.3453 10.9128C64.3022 10.204 64.5074 9.09597 63.6449 7.92501C63.2999 7.45537 62.8316 7.04994 62.304 6.74524C61.7777 6.4418 61.1922 6.23783 60.613 6.17487C59.1676 6.01371 58.3102 6.74524 58.1742 7.92753C58.0949 8.62759 58.008 9.22692 58.008 9.22692C57.867 10.311 57.7662 11.5222 57.211 12.4867L57.0473 12.7687C56.4895 13.737 55.2883 14.0996 54.2735 13.6337C51.4531 12.3356 48.5194 11.4983 45.5644 11.103C44.4891 10.9594 43.6807 10.0604 43.6807 8.97762V8.51931C43.6807 7.40627 44.1995 6.30708 44.62 5.29854C44.62 5.29854 44.8442 4.73573 45.1249 4.08856C45.5996 2.99692 45.2219 1.93425 43.8898 1.35129C43.3572 1.1171 42.749 1 42.1396 1C41.5315 1 40.9221 1.1171 40.3895 1.35129C39.0574 1.93425 38.6809 2.99692 39.1543 4.08856C39.4363 4.73573 39.6592 5.29854 39.6592 5.29854C40.0797 6.30708 40.5985 7.40627 40.5985 8.51931V8.83912C40.5985 9.95593 39.7423 10.87 38.6305 10.9745C35.6024 11.2616 32.6297 11.9944 29.8194 13.1503C28.8197 13.5607 27.6714 13.1855 27.13 12.2487L26.8983 11.8471C26.3418 10.8826 26.241 9.67264 26.1013 8.58856C26.1013 8.58856 26.0132 7.98923 25.9338 7.28791C25.7991 6.10562 24.9417 5.37409 23.495 5.53525C22.917 5.59947 22.3316 5.80218 21.804 6.10688C21.2777 6.41032 20.8093 6.81575 20.4631 7.28539C19.6018 8.45761 19.8071 9.56561 20.764 10.2732C21.3306 10.6938 21.8053 11.069 21.8053 11.069C22.6728 11.7325 23.6725 12.425 24.229 13.3882L24.3864 13.6589C24.9442 14.6272 24.6558 15.8485 23.7455 16.4957C21.3104 18.2244 19.1032 20.3321 17.2159 22.7886C16.5574 23.6473 15.3713 23.8979 14.4345 23.3565L14.0278 23.121C13.0634 22.5645 12.3721 21.566 11.7086 20.6973C11.7086 20.6973 11.3321 20.2226 10.9128 19.656C10.2052 18.6991 9.09723 18.4938 7.92501 19.3563C7.45537 19.7013 7.04994 20.1697 6.7465 20.696C6.44306 21.2236 6.23909 21.809 6.17487 22.3882C6.01497 23.8337 6.74524 24.6911 7.92753 24.8258C8.62885 24.9064 9.22818 24.9933 9.22818 24.9933C10.3123 25.1343 11.5235 25.2338 12.4867 25.7903L12.77 25.954C13.737 26.5118 14.1009 27.7129 13.6325 28.7278C12.3356 31.5481 11.4983 34.4818 11.1042 37.4369C10.9594 38.5109 10.0617 39.3193 8.97762 39.3193H8.51931C7.40627 39.3193 6.30708 38.8005 5.29854 38.38C5.29854 38.38 4.73573 38.1571 4.08856 37.8763C2.99692 37.4016 1.93551 37.7781 1.35129 39.1102C1.1171 39.6441 1 40.2522 1 40.8616C1 41.4698 1.1171 42.0779 1.35129 42.6118C1.93551 43.9439 2.99692 44.3204 4.08856 43.8457C4.73573 43.5649 5.29854 43.3421 5.29854 43.3421C6.30708 42.9215 7.40627 42.4028 8.51931 42.4028H8.84037C9.95593 42.4028 10.87 43.259 10.9745 44.3695C11.2629 47.3989 11.9957 50.3703 13.1503 53.1819C13.562 54.1816 13.1855 55.3299 12.2487 55.8713L11.8483 56.103C10.8839 56.6595 9.67264 56.759 8.58982 56.9C8.58982 56.9 7.98923 56.9881 7.28791 57.0674C6.10562 57.2034 5.37535 58.0596 5.53525 59.5063C5.60073 60.0842 5.80344 60.6697 6.10688 61.196C6.41158 61.7236 6.81575 62.1919 7.28539 62.5369C8.45761 63.3994 9.56561 63.1942 10.2745 62.2373C10.6938 61.6707 11.069 61.196 11.069 61.196C11.7325 60.3272 12.425 59.3288 13.3882 58.7722L13.6602 58.6161C14.6284 58.0571 15.8485 58.3442 16.4957 59.2557C18.2244 61.6908 20.3321 63.898 22.7899 65.7841C23.6486 66.4439 23.8979 67.6287 23.3565 68.5655L23.1223 68.9734C22.5645 69.9366 21.566 70.6291 20.6985 71.2914C20.6985 71.2914 20.2226 71.6679 19.656 72.0872C18.6991 72.796 18.4951 73.904 19.3563 75.0762C19.7013 75.5446 20.1697 75.9501 20.6973 76.2548C21.2248 76.5595 21.8103 76.7622 22.3882 76.8251C23.8349 76.9863 24.6911 76.2548 24.8258 75.0725C24.9064 74.3724 24.9945 73.7731 24.9945 73.7731C25.1343 72.689 25.2338 71.4778 25.7915 70.5145L25.9552 70.2313C26.513 69.2643 27.7129 68.9004 28.7278 69.3675C31.5481 70.6656 34.4818 71.5017 37.4382 71.897C38.5109 72.0406 39.3205 72.9396 39.3205 74.0236V74.482C39.3205 75.595 38.8018 76.6942 38.3812 77.7027C38.3812 77.7027 38.1571 78.2655 37.8763 78.9127C37.4016 80.0043 37.7781 81.0658 39.1115 81.65C39.6454 81.8842 40.2535 82 40.8604 82C41.4698 82 42.0779 81.8842 42.6118 81.65C43.9452 81.0658 44.3216 80.0043 43.847 78.9127C43.5649 78.2655 43.3421 77.7027 43.3421 77.7027C42.9215 76.6942 42.4028 75.595 42.4028 74.482V74.1609C42.4028 73.0453 43.2602 72.13 44.3707 72.0255C47.3989 71.7384 50.3703 71.0056 53.1819 69.8497C54.1828 69.4393 55.3311 69.8158 55.8713 70.7513L56.103 71.1542C56.6595 72.1174 56.759 73.3286 56.9 74.4114C56.9 74.4114 56.9881 75.012 57.0687 75.7121C57.2034 76.8944 58.0596 77.6259 59.5063 77.4647C60.0842 77.4018 60.6697 77.1978 61.1973 76.8944C61.7236 76.5897 62.1919 76.1842 62.5369 75.7146C63.3994 74.5424 63.1954 73.4356 62.2385 72.7268C61.6719 72.3075 61.196 71.931 61.196 71.931C60.3272 71.2687 59.3288 70.5762 58.7722 69.6118L58.6161 69.3411C58.0571 68.3741 58.3442 67.1515 59.2557 66.5056C61.6908 64.7769 63.898 62.6691 65.7841 60.2114C66.4439 59.3527 67.6287 59.1034 68.5655 59.6435L68.9734 59.879C69.9366 60.4355 70.6291 61.434 71.2927 62.3027C71.2927 62.3027 71.6679 62.7787 72.0884 63.344C72.7973 64.3022 73.904 64.5062 75.0762 63.6437C75.5446 63.2987 75.9513 62.8303 76.2548 62.304C76.5595 61.7764 76.7622 61.191 76.8264 60.613C76.9875 59.1663 76.256 58.3102 75.0725 58.1742C74.3737 58.0949 73.7731 58.0067 73.7731 58.0067C72.6903 57.867 71.479 57.7662 70.5145 57.2097L70.2325 57.046C69.2643 56.4882 68.9004 55.2871 69.3675 54.2735C70.6656 51.4531 71.5017 48.5182 71.897 45.5631C72.0406 44.4891 72.9408 43.6807 74.0236 43.6807H74.4832C75.595 43.6807 76.6942 44.1995 77.7027 44.62C77.7027 44.62 78.2655 44.8442 78.9127 45.1249C80.0043 45.5984 81.0658 45.2219 81.65 43.8898C81.8842 43.3559 82 42.7478 82 42.1396C82 41.5315 81.8842 40.9221 81.65 40.3895Z" stroke="white"/>
</g>
</svg>
