<svg width="57" height="57" viewBox="0 0 57 57" fill="none" xmlns="http://www.w3.org/2000/svg">
<g opacity="0.15">
<path fill-rule="evenodd" clip-rule="evenodd" d="M26.5357 19.6607C26.5357 22.3723 24.3366 24.5714 21.625 24.5714C18.9134 24.5714 16.7143 22.3723 16.7143 19.6607C16.7143 16.9482 18.9134 14.75 21.625 14.75C24.3366 14.75 26.5357 16.9482 26.5357 19.6607Z" stroke="white"/>
<path fill-rule="evenodd" clip-rule="evenodd" d="M39.3036 39.3036C39.3036 40.931 37.9847 42.25 36.3575 42.25C34.7304 42.25 33.4107 40.931 33.4107 39.3036C33.4107 37.6763 34.7304 36.3572 36.3575 36.3572C37.9847 36.3572 39.3036 37.6763 39.3036 39.3036Z" stroke="white"/>
<path fill-rule="evenodd" clip-rule="evenodd" d="M20.6429 32.4286C20.6429 34.056 19.3238 35.375 17.6964 35.375C16.0691 35.375 14.75 34.056 14.75 32.4286C14.75 30.8013 16.0691 29.4822 17.6964 29.4822C19.3238 29.4822 20.6429 30.8013 20.6429 32.4286Z" stroke="white"/>
<path fill-rule="evenodd" clip-rule="evenodd" d="M32.4286 32.4286C32.4286 34.056 31.1089 35.375 29.4817 35.375C27.8546 35.375 26.5357 34.056 26.5357 32.4286C26.5357 30.8013 27.8546 29.4822 29.4817 29.4822C31.1089 29.4822 32.4286 30.8013 32.4286 32.4286Z" stroke="white"/>
<path fill-rule="evenodd" clip-rule="evenodd" d="M44.2143 29.9732C44.2143 31.3287 43.1153 32.4285 41.7589 32.4285C40.4026 32.4285 39.3036 31.3287 39.3036 29.9732C39.3036 28.6177 40.4026 27.5178 41.7589 27.5178C43.1153 27.5178 44.2143 28.6177 44.2143 29.9732Z" stroke="white"/>
<path fill-rule="evenodd" clip-rule="evenodd" d="M29.4821 42.7407C29.4821 43.5545 28.8225 44.2143 28.0089 44.2143C27.1954 44.2143 26.5357 43.5545 26.5357 42.7407C26.5357 41.9269 27.1954 41.2678 28.0089 41.2678C28.8225 41.2678 29.4821 41.9269 29.4821 42.7407Z" stroke="white"/>
<path fill-rule="evenodd" clip-rule="evenodd" d="M37.3393 21.1336C37.3393 21.9474 36.6795 22.6072 35.8657 22.6072C35.0519 22.6072 34.3929 21.9474 34.3929 21.1336C34.3929 20.3198 35.0519 19.6608 35.8657 19.6608C36.6795 19.6608 37.3393 20.3198 37.3393 21.1336Z" stroke="white"/>
<path fill-rule="evenodd" clip-rule="evenodd" d="M55.7623 27.7459C55.3656 26.8406 54.6449 26.5858 53.9037 26.9072C53.4642 27.0979 53.0821 27.2501 53.0821 27.2501C52.3973 27.5356 51.6509 27.8879 50.896 27.8879H50.678C49.9197 27.8879 49.299 27.3056 49.2272 26.5516C49.0331 24.4946 48.5347 22.4769 47.7507 20.5679C47.472 19.889 47.7267 19.1093 48.3628 18.7426L48.6355 18.5844C49.2896 18.2074 50.1129 18.139 50.8481 18.0441C50.8481 18.0441 51.2551 17.9842 51.7304 17.9295C52.5341 17.838 53.0299 17.2558 52.9214 16.2744C52.8778 15.8811 52.7401 15.4835 52.5332 15.1262C52.3263 14.768 52.051 14.4499 51.733 14.2157C50.9362 13.6309 50.1856 13.7694 49.7034 14.4191C49.4187 14.8039 49.163 15.127 49.163 15.127C48.7133 15.7161 48.2431 16.3949 47.5882 16.7728L47.4053 16.8788C46.7478 17.2575 45.9177 17.0626 45.4791 16.4445C44.3053 14.7902 42.8741 13.2923 41.2061 12.0108C40.6222 11.5628 40.4529 10.7583 40.8197 10.1222L40.9804 9.84606C41.3574 9.19118 42.0363 8.72096 42.6262 8.27126C42.6262 8.27126 42.9485 8.01564 43.3332 7.73094C43.983 7.24961 44.1223 6.49726 43.5367 5.70217C43.3024 5.38328 42.9844 5.10799 42.6262 4.90109C42.2688 4.69505 41.8713 4.55655 41.478 4.5138C40.4965 4.40437 39.9143 4.90109 39.822 5.70388C39.7681 6.17923 39.7091 6.58618 39.7091 6.58618C39.6134 7.32228 39.545 8.14473 39.1679 8.79962L39.0568 8.99112C38.6781 9.64857 37.8624 9.8948 37.1734 9.57847C35.2583 8.69703 33.2663 8.12849 31.2597 7.86004C30.5296 7.76258 29.9808 7.15215 29.9808 6.4169V6.1057C29.9808 5.34993 30.333 4.60357 30.6185 3.91877C30.6185 3.91877 30.7707 3.53661 30.9614 3.09717C31.2837 2.35593 31.0272 1.63437 30.1227 1.23853C29.761 1.07951 29.3481 1 28.9343 1C28.5214 1 28.1076 1.07951 27.7459 1.23853C26.8414 1.63437 26.5858 2.35593 26.9072 3.09717C27.0988 3.53661 27.2501 3.91877 27.2501 3.91877C27.5356 4.60357 27.8879 5.34993 27.8879 6.1057V6.32286C27.8879 7.08119 27.3065 7.70187 26.5516 7.77283C24.4955 7.96776 22.4769 8.46534 20.5687 9.25017C19.8899 9.52888 19.1102 9.27411 18.7426 8.63803L18.5853 8.36531C18.2074 7.71042 18.139 6.88883 18.0441 6.15272C18.0441 6.15272 17.9842 5.74577 17.9304 5.26957C17.8389 4.46678 17.2567 3.97006 16.2744 4.07949C15.8819 4.1231 15.4844 4.26074 15.1262 4.46764C14.7688 4.67368 14.4508 4.94897 14.2157 5.26786C13.6309 6.06381 13.7702 6.81616 14.42 7.29663C14.8047 7.58218 15.127 7.83696 15.127 7.83696C15.7161 8.28751 16.3949 8.75773 16.7728 9.41175L16.8797 9.59557C17.2584 10.253 17.0626 11.0823 16.4445 11.5217C14.791 12.6956 13.2923 14.1267 12.0108 15.7947C11.5636 16.3778 10.7583 16.5479 10.1222 16.1803L9.84606 16.0204C9.19118 15.6426 8.72182 14.9646 8.27126 14.3747C8.27126 14.3747 8.01564 14.0524 7.73094 13.6676C7.25047 13.0179 6.49812 12.8785 5.70217 13.4642C5.38328 13.6984 5.10799 14.0165 4.90195 14.3738C4.69591 14.732 4.55741 15.1296 4.5138 15.5229C4.40523 16.5043 4.90109 17.0866 5.70388 17.178C6.18008 17.2327 6.58703 17.2917 6.58703 17.2917C7.32314 17.3875 8.14559 17.455 8.79962 17.8329L8.99198 17.9441C9.64857 18.3228 9.89565 19.1384 9.57761 19.8275C8.69702 21.7426 8.12849 23.7346 7.86089 25.7411C7.76258 26.4704 7.153 27.0192 6.4169 27.0192H6.1057C5.34993 27.0192 4.60357 26.667 3.91877 26.3815C3.91877 26.3815 3.53661 26.2301 3.09717 26.0395C2.35593 25.7172 1.63522 25.9728 1.23853 26.8773C1.07951 27.2398 1 27.6528 1 28.0665C1 28.4795 1.07951 28.8924 1.23853 29.2549C1.63522 30.1594 2.35593 30.4151 3.09717 30.0928C3.53661 29.9021 3.91877 29.7508 3.91877 29.7508C4.60357 29.4652 5.34993 29.113 6.1057 29.113H6.32371C7.08119 29.113 7.70187 29.6944 7.77283 30.4484C7.96862 32.5054 8.46619 34.5231 9.25017 36.4321C9.52974 37.111 9.27411 37.8907 8.63803 38.2583L8.36616 38.4156C7.71128 38.7935 6.88883 38.861 6.15358 38.9568C6.15358 38.9568 5.74577 39.0166 5.26957 39.0705C4.46678 39.1628 3.97092 39.7442 4.07949 40.7265C4.12395 41.1189 4.2616 41.5165 4.46764 41.8738C4.67453 42.232 4.94897 42.5501 5.26786 42.7843C6.06381 43.37 6.81616 43.2306 7.29749 42.5809C7.58218 42.1961 7.83696 41.8738 7.83696 41.8738C8.28751 41.2839 8.75773 40.6059 9.41175 40.2281L9.59642 40.1221C10.2539 39.7425 11.0823 39.9374 11.5217 40.5564C12.6956 42.2098 14.1267 43.7085 15.7956 44.9892C16.3787 45.4372 16.5479 46.2417 16.1803 46.8778L16.0213 47.1548C15.6426 47.8088 14.9646 48.279 14.3755 48.7287C14.3755 48.7287 14.0524 48.9844 13.6676 49.2691C13.0179 49.7504 12.8794 50.5027 13.4642 51.2987C13.6984 51.6167 14.0165 51.892 14.3747 52.0989C14.7329 52.3058 15.1304 52.4435 15.5229 52.4862C16.5052 52.5956 17.0866 52.0989 17.178 51.2961C17.2327 50.8208 17.2926 50.4138 17.2926 50.4138C17.3875 49.6777 17.455 48.8553 17.8338 48.2012L17.9449 48.0089C18.3236 47.3523 19.1384 47.1052 19.8275 47.4224C21.7426 48.3038 23.7346 48.8715 25.742 49.14C26.4704 49.2374 27.0201 49.8479 27.0201 50.584V50.8952C27.0201 51.6509 26.6679 52.3973 26.3823 53.0821C26.3823 53.0821 26.2301 53.4642 26.0395 53.9037C25.7172 54.6449 25.9728 55.3656 26.8782 55.7623C27.2407 55.9213 27.6536 56 28.0657 56C28.4795 56 28.8924 55.9213 29.2549 55.7623C30.1603 55.3656 30.4159 54.6449 30.0936 53.9037C29.9021 53.4642 29.7508 53.0821 29.7508 53.0821C29.4652 52.3973 29.113 51.6509 29.113 50.8952V50.6771C29.113 49.9197 29.6952 49.2981 30.4493 49.2272C32.5054 49.0322 34.5231 48.5347 36.4321 47.7498C37.1118 47.4711 37.8915 47.7267 38.2583 48.362L38.4156 48.6355C38.7935 49.2896 38.861 50.112 38.9568 50.8473C38.9568 50.8473 39.0166 51.2551 39.0713 51.7304C39.1628 52.5332 39.7442 53.0299 40.7265 52.9205C41.1189 52.8778 41.5165 52.7393 41.8747 52.5332C42.232 52.3263 42.5501 52.051 42.7843 51.7321C43.37 50.9362 43.2315 50.1847 42.5817 49.7034C42.197 49.4187 41.8738 49.163 41.8738 49.163C41.2839 48.7133 40.6059 48.2431 40.2281 47.5882L40.1221 47.4044C39.7425 46.7478 39.9374 45.9177 40.5564 45.4791C42.2098 44.3053 43.7085 42.8741 44.9892 41.2053C45.4372 40.6222 46.2417 40.4529 46.8778 40.8197L47.1548 40.9796C47.8088 41.3574 48.279 42.0354 48.7296 42.6253C48.7296 42.6253 48.9844 42.9485 49.2699 43.3324C49.7512 43.983 50.5027 44.1215 51.2987 43.5358C51.6167 43.3016 51.8929 42.9835 52.0989 42.6262C52.3058 42.268 52.4435 41.8704 52.4871 41.478C52.5965 40.4957 52.0998 39.9143 51.2961 39.822C50.8216 39.7681 50.4138 39.7083 50.4138 39.7083C49.6786 39.6134 48.8561 39.545 48.2012 39.1671L48.0097 39.0559C47.3523 38.6772 47.1052 37.8616 47.4224 37.1734C48.3038 35.2583 48.8715 33.2654 49.14 31.2589C49.2374 30.5296 49.8487 29.9808 50.584 29.9808H50.896C51.6509 29.9808 52.3973 30.333 53.0821 30.6185C53.0821 30.6185 53.4642 30.7707 53.9037 30.9614C54.6449 31.2828 55.3656 31.0272 55.7623 30.1227C55.9213 29.7602 56 29.3472 56 28.9343C56 28.5214 55.9213 28.1076 55.7623 27.7459Z" stroke="white"/>
</g>
</svg>
